<svg xmlns="http://www.w3.org/2000/svg" version="1.1" xmlns:xlink="http://www.w3.org/1999/xlink" xmlns:svgjs="http://svgjs.dev/svgjs" width="1000" height="1000" viewBox="0 0 1000 1000"><g transform="matrix(1,0,0,1,-0.14221556886212738,-0.14221556886229791)"><svg viewBox="0 0 334 334" data-background-color="#ffffff" preserveAspectRatio="xMidYMid meet" height="1000" width="1000" xmlns="http://www.w3.org/2000/svg" xmlns:xlink="http://www.w3.org/1999/xlink"><g id="tight-bounds" transform="matrix(1,0,0,1,0.04749999999998522,0.04750000000001364)"><svg viewBox="0 0 333.90454557049503 333.90454557049503" height="333.90454557049503" width="333.90454557049503"><g><svg></svg></g><g><svg viewBox="0 0 333.90454557049503 333.90454557049503" height="333.90454557049503" width="333.90454557049503"><g><path d="M0 166.952c0-92.205 74.747-166.952 166.952-166.952 92.205 0 166.952 74.747 166.953 166.952 0 92.205-74.747 166.952-166.953 166.953-92.205 0-166.952-74.747-166.952-166.953zM166.952 316.63c82.665 0 149.677-67.013 149.678-149.678 0-82.665-67.013-149.677-149.678-149.677-82.665 0-149.677 67.013-149.677 149.677 0 82.665 67.013 149.677 149.677 149.678z" data-fill-palette-color="tertiary" fill="#9537e6" stroke="transparent"></path><ellipse rx="160.27418187383762" ry="160.27418187383762" cx="166.95227278524752" cy="166.95227278524752" fill="#9537e6" stroke="transparent" stroke-width="0" fill-opacity="1" data-fill-palette-color="tertiary"></ellipse></g><g transform="matrix(1,0,0,1,107.34654986517646,71.17305217166896)"><svg viewBox="0 0 119.21144584014212 191.55844122715712" height="191.55844122715712" width="119.21144584014212"><g><svg viewBox="0 0 119.21144584014212 191.55844122715712" height="191.55844122715712" width="119.21144584014212"><g><svg viewBox="0 0 119.21144584014212 191.55844122715712" height="191.55844122715712" width="119.21144584014212"><g><svg viewBox="0 0 119.21144584014212 191.55844122715712" height="191.55844122715712" width="119.21144584014212"><g id="textblocktransform"><svg viewBox="0 0 119.21144584014212 191.55844122715712" height="191.55844122715712" width="119.21144584014212" id="textblock"><g><svg viewBox="0 0 119.21144584014212 191.55844122715712" height="191.55844122715712" width="119.21144584014212"><g transform="matrix(1,0,0,1,0,0)"><svg width="119.21144584014212" viewBox="2.5 -32.099998474121094 20.350000381469727 32.69999694824219" height="191.55844122715712" data-palette-color="#ffffff"><path d="M12.4 0.6L12.4 0.6Q9.1 0.6 5.8-1.2L5.8-1.2Q4.7-1.75 4.3-1.75L4.3-1.75Q3.55-1.75 3.5-0.7L3.5-0.7 3.45 0 2.5 0 2.5-8.35 3.4-8.35Q3.85-4.5 6.28-2.68 8.7-0.85 12.03-0.85 15.35-0.85 17.07-2.65 18.8-4.45 18.8-6.9L18.8-6.9Q18.8-10.8 14.3-12.8L14.3-12.8 8.35-15.45Q5.65-16.65 4.3-18.73 2.95-20.8 2.95-23.2L2.95-23.2Q2.95-26.85 5.4-29.48 7.85-32.1 12.45-32.1L12.45-32.1Q15.15-32.1 18-30.3L18-30.3Q18.95-29.75 19.3-29.75L19.3-29.75Q19.95-29.75 20-30.8L20-30.8 20.05-31.8 21-31.8 21-23.15 20.1-23.15Q19.7-27 17.63-28.83 15.55-30.65 12.58-30.65 9.6-30.65 7.98-29.03 6.35-27.4 6.35-25.33 6.35-23.25 7.48-21.6 8.6-19.95 10.8-19L10.8-19 16.8-16.35Q19.8-15 21.33-12.83 22.85-10.65 22.85-8.15L22.85-8.15Q22.85-4.6 20-2 17.15 0.6 12.4 0.6Z" opacity="1" transform="matrix(1,0,0,1,0,0)" fill="#ffffff" class="wordmark-text-0" data-fill-palette-color="quaternary" id="text-0"></path></svg></g></svg></g></svg></g></svg></g><g></g></svg></g></svg></g></svg></g></svg></g><defs></defs></svg><rect width="333.90454557049503" height="333.90454557049503" fill="none" stroke="none" visibility="hidden"></rect></g></svg></g></svg>